# xmcd CD database file
#
# Track frame offsets:
#	150
#	21202
#	40666
#	56936
#	79140
#	101099
#	117977
#	131100
#	141858
#	159682
#	173130
#	192780
#	203960
#	224341
#	245689
#	267661
#	281987
#	303081
#	321680
#
# Disc length: 4567 seconds
#
# Revision: 0
# Processed by: cddbd v1.5PL3 Copyright (c) Steve Scherf et al.
# Submitted via: CDex 1.51
#
DISCID=3011d513
DTITLE=Various Artist - the immersion of jazzymood
DYEAR=2002
DGENRE=Jazz
TTITLE0=They can't take that away from me
TTITLE1=Brother can you spare a dime
TTITLE2=Dream a little dream
TTITLE3=the sentimental touch
TTITLE4=Tears in heaven
TTITLE5=Rhythm of the rain
TTITLE6=I love you for sentimental reasons
TTITLE7=I see your face before me
TTITLE8=I'll close  my eyes
TTITLE9=all about ronie
TTITLE10=I was wrong
TTITLE11=My funny valentine
TTITLE12=When I look in your eyes
TTITLE13=The  very thought of you
TTITLE14=Fever
TTITLE15=Misty
TTITLE16=Love is a many splendid thing
TTITLE17=Gee baby anin't I good to you
TTITLE18=Time after time
EXTD=YEAR: 2002
EXTT0=
EXTT1=
EXTT2=
EXTT3=
EXTT4=
EXTT5=
EXTT6=
EXTT7=
EXTT8=
EXTT9=
EXTT10=
EXTT11=
EXTT12=
EXTT13=
EXTT14=
EXTT15=
EXTT16=
EXTT17=
EXTT18=
PLAYORDER=
